<svg xmlns="http://www.w3.org/2000/svg" version="1.1" xmlns:xlink="http://www.w3.org/1999/xlink" xmlns:svgjs="http://svgjs.dev/svgjs" width="1500" height="1500" viewBox="0 0 1500 1500"><rect width="1500" height="1500" fill="#ffffff"></rect><g transform="matrix(0.6666666666666666,0,0,0.6666666666666666,248.15191601855014,578.5822426868635)"><svg viewBox="0 0 260 89" data-background-color="#ffffff" preserveAspectRatio="xMidYMid meet" height="513" width="1500" xmlns="http://www.w3.org/2000/svg" xmlns:xlink="http://www.w3.org/1999/xlink"><g id="tight-bounds" transform="matrix(1,0,0,1,0.4805018351769661,0.10871462242440089)"><svg viewBox="0 0 259.03899632964607 88.78257075515121" height="88.78257075515121" width="259.03899632964607"><g><svg viewBox="0 0 259.03899632964607 88.78257075515121" height="88.78257075515121" width="259.03899632964607"><g><svg viewBox="0 0 259.03899632964607 88.78257075515121" height="88.78257075515121" width="259.03899632964607"><g id="textblocktransform"><svg viewBox="0 0 259.03899632964607 88.78257075515121" height="88.78257075515121" width="259.03899632964607" id="textblock"><g><svg viewBox="0 0 259.03899632964607 60.078767000000006" height="60.078767000000006" width="259.03899632964607"><g><svg><g></g><g></g></svg></g><g><svg><g><svg></svg></g><g></g></svg></g><g id="text-0"><svg viewBox="0 0 259.03899632964607 60.078767000000006" height="60.078767000000006" width="259.03899632964607"><g transform="matrix(1,0,0,1,0,0)"><svg width="221.066531" viewBox="1.05 -35.55 132.64 36.05" height="60.078767000000006" data-palette-color="#000000"><path d="M35.7-18.1L35.7-18.1Q35.7-7.8 29.9-3.75L29.9-3.75Q24.55 0 15.2 0L15.2 0 1.05 0 1.05-0.95 4.35-0.95 4.35-34.05 1.05-34.05 1.05-35 16.5-35Q26.1-35 30.9-31.08 35.7-27.15 35.7-18.1ZM14.1-34.05L14.1-0.95 16-0.95Q21.05-0.95 23.23-4.53 25.4-8.1 25.4-16.5L25.4-16.5 25.4-19.4Q25.4-30.65 21.1-32.95L21.1-32.95Q19.05-34.05 15.3-34.05L15.3-34.05 14.1-34.05ZM73.45-18.1L73.45-18.1Q73.45-7.8 67.65-3.75L67.65-3.75Q62.3 0 52.95 0L52.95 0 38.8 0 38.8-0.95 42.1-0.95 42.1-34.05 38.8-34.05 38.8-35 54.25-35Q63.85-35 68.65-31.08 73.45-27.15 73.45-18.1ZM51.85-34.05L51.85-0.95 53.75-0.95Q58.8-0.95 60.97-4.53 63.15-8.1 63.15-16.5L63.15-16.5 63.15-19.4Q63.15-30.65 58.85-32.95L58.85-32.95Q56.8-34.05 53.05-34.05L53.05-34.05 51.85-34.05ZM91.82 0.5Q84.55 0.5 80.77-4.4 77-9.3 77-18.1 77-26.9 81.05-31.23 85.09-35.55 92.12-35.55 99.15-35.55 103.17-31.25 107.2-26.95 107.2-17.55 107.2-8.15 103.15-3.83 99.09 0.5 91.82 0.5ZM87.25-19.4L87.25-19.4 87.25-14.95Q87.25-10.1 87.32-8.1 87.4-6.1 87.84-3.95 88.3-1.8 89.3-1.18 90.3-0.55 91.65-0.55 93-0.55 93.67-0.7 94.34-0.85 94.87-1.33 95.4-1.8 95.75-2.27 96.09-2.75 96.32-3.75 96.55-4.75 96.7-5.6 96.84-6.45 96.9-8.1L96.9-8.1Q97-11.3 97-14.55L97-14.55 97-18.95Q97-28.75 96.27-31.63 95.55-34.5 92.15-34.5 88.75-34.5 88-31.55 87.25-28.6 87.25-19.4ZM120.44 0.5Q117.74 0.5 116.19-0.98 114.64-2.45 114.64-4.63 114.64-6.8 116.12-9.43 117.59-12.05 122.54-17.8L122.54-17.8 130.79-27.35 117.99-27.35Q114.44-27.35 113.32-26.48 112.19-25.6 111.54-22.3L111.54-22.3 110.74-22.3 111.29-35 133.69-35 133.69-29.6 128.14-19.9Q124.44-13.35 123.42-10.53 122.39-7.7 122.39-5.15 122.39-2.6 123.89-0.45L123.89-0.45 123.54 0.15Q122.14 0.5 120.44 0.5L120.44 0.5Z" opacity="1" transform="matrix(1,0,0,1,0,0)" fill="#000000" class="wordmark-text-0" data-fill-palette-color="primary"></path></svg></g><g><svg xmlns="http://www.w3.org/2000/svg" xmlns:xlink="http://www.w3.org/1999/xlink" version="1.1" x="234.837631" y="0" viewBox="7.245871961638686 0.19909393402105952 9.507440664722642 23.601780506263278" style="enable-background:new 0 0 24 24;" xml:space="preserve" height="60.078767000000006" width="24.20136532964608" class="icon-dxe-0" data-fill-palette-color="accent" id="dxe-0"><g fill="#111111" data-fill-palette-color="accent"><path d="M16.678 15.052C16.056 12.551 15.524 11.826 15.317 11.456 15.275 11.233 15.124 11.064 14.96 10.939L15.001 10.889C15.573 10.287 14.251 7.811 14.281 7.821 14.31 7.831 14.765 7.801 14.992 7.88S15.396 7.811 15.564 7.367C15.693 6.558 14.795 5.236 14.716 5.117 14.637 4.999 14.647 4.703 14.578 4.565S14.43 3.865 14.055 3.46C13.443 2.947 12.209 3.049 11.786 3.063L11.782 3.052C11.805 2.918 11.839 2.648 11.843 2.534 11.87 2.48 11.877 2.404 11.874 2.25 11.873 2.187 11.871 2.122 11.874 2.062 11.878 1.948 11.868 1.907 11.857 1.881L11.843 1.858 11.838 1.651C11.838 1.642 11.833 1.621 11.831 1.609L11.878 1.444C11.9 1.37 11.937 0.934 11.804 0.734S11.619 0.556 11.419 0.446C11.22 0.334 11.227 0.283 10.939 0.253 10.65 0.224 10.428 0.179 10.258 0.209S9.843 0.387 9.807 0.461 9.437 0.594 9.407 0.794 9.289 1.26 9.422 1.548A0.87 0.87 0 0 1 9.49 2.02C9.482 2.018 9.477 2.015 9.471 2.019A0.2 0.2 0 0 0 9.288 2.115C9.218 2.231 9.261 2.44 9.415 2.736A0.48 0.48 0 0 0 9.708 2.974C9.755 3.235 9.869 3.554 9.89 3.608L9.694 4.012S8.777 4.737 8.481 5.211 8.199 6.958 8.096 7.15 8.022 8.718 8.022 8.822C7.74 8.792 7.814 9.118 7.814 9.118S7.8 9.429 7.726 9.562 7.652 10.539 7.652 10.539 7.593 10.79 7.578 11.057C7.574 11.124 7.594 11.17 7.626 11.202 7.597 11.481 7.553 11.908 7.553 11.974 7.553 12.073 7.355 13.631 7.355 13.681S7.138 14.046 7.316 14.204C7.444 14.362 7.454 14.677 7.711 14.835 7.967 14.993 7.987 15.082 8.056 15.042 8.125 15.003 8.115 14.875 8.115 14.875S8.352 14.934 8.293 14.747C8.352 14.687 8.273 14.579 8.155 14.53A0.9 0.9 0 0 0 8.116 14.086C8.096 14.047 8.185 13.474 8.076 13.238 7.968 13.001 8.037 12.646 8.096 12.478 8.146 12.338 8.497 11.626 8.605 11.206L8.62 11.205C8.788 11.205 8.827 10.732 8.827 10.732S8.807 10.475 9.004 10.229C9.202 9.982 9.054 9.519 9.221 9.459S9.309 9.113 9.28 9.044C9.25 8.974 9.359 8.699 9.329 8.471 9.26 8.314 9.487 7.396 9.526 7.308 10 8.186 10.434 8.373 10.434 8.373S10.473 8.639 10.532 8.767 10.522 9.004 10.384 9.211C10.216 9.626 10.374 10.81 10.374 10.889 10.374 10.946 10.448 11.228 10.537 11.458 10.528 12.364 10.981 14.046 10.981 14.046S11.07 15.836 11.188 16.251 11.558 16.71 11.44 16.917C11.277 17.124 11.455 17.686 11.485 19.003S11.855 21.208 11.973 21.474 12.106 22.021 12.121 22.214A0.33 0.33 0 0 0 12.284 22.481C12.307 22.459 12.347 22.441 12.376 22.421 12.312 22.826 12.224 23.461 12.284 23.561 12.373 23.709 12.802 23.872 13.483 23.768 13.764 23.679 13.779 23.546 13.513 22.925 13.285 22.537 13.395 22.394 13.392 22.214L13.394 22.215C13.631 22.067 13.349 21.046 13.29 20.853A5 5 0 0 1 13.217 20.306 0.2 0.2 0 0 0 13.349 20.261C13.542 20.128 13.201 19.566 13.127 19.255 13.097 18.93 13.201 18.619 13.245 18.56 13.284 18.507 13.362 18.407 13.309 18.283 13.567 18.195 13.911 17.981 14.192 17.731 14.592 17.376 15.923 16.592 16.278 16.414 16.634 16.236 16.886 15.91 16.678 15.052M9.768 2.326C9.805 2.059 9.872 2.119 9.916 2.089 9.961 2.059 9.99 1.956 9.946 1.792 9.901 1.63 9.916 1.422 10.116 1.474S11.3 1.562 11.588 1.467C11.594 1.468 11.597 1.477 11.603 1.479 11.621 1.558 11.637 1.63 11.637 1.652 11.637 1.72 11.644 1.923 11.644 1.923 11.645 1.939 11.664 1.945 11.671 1.958 11.671 1.959 11.676 1.981 11.673 2.055A4 4 0 0 0 11.673 2.255C11.674 2.318 11.676 2.402 11.672 2.442A0.1 0.1 0 0 0 11.644 2.511C11.644 2.599 11.603 2.924 11.58 3.047A0.1 0.1 0 0 0 11.59 3.114C11.601 3.134 11.62 3.188 11.645 3.264 11.231 3.94 11.058 4.042 11.029 4.054L10.983 4.056C10.617 4.056 10.182 3.591 10.04 3.405 10.037 3.401 10.032 3.402 10.029 3.399A3.3 3.3 0 0 1 9.896 2.882 0.1 0.1 0 0 0 9.822 2.8 1.3 1.3 0 0 1 9.768 2.326M12.54 4.903C12.586 4.942 12.638 4.986 12.693 5.026 12.899 5.178 13.097 5.452 13.143 5.646 13.208 5.808 13.316 5.972 13.368 5.987 13.422 5.999 13.593 6.058 13.775 6.136L13.838 6.32 13.785 6.14C14.01 6.238 14.25 6.366 14.307 6.478L14.329 6.52C14.43 6.704 14.736 7.263 14.326 7.592A0.7 0.7 0 0 1 14.014 7.676C13.848 7.676 13.688 7.602 13.529 7.458L13.406 7.345C13.289 7.237 13.117 7.078 13.05 7.033 12.651 7.04 12.447 7.019 12.345 6.965 11.897 6.724 11.619 6.521 11.692 6.302L11.701 6.274A0.3 0.3 0 0 1 11.649 6.084 0.24 0.24 0 0 1 11.688 5.971 0.34 0.34 0 0 1 11.695 5.746C11.687 5.736 11.682 5.724 11.675 5.713 11.568 5.58 11.428 5.399 11.41 5.343 11.381 5.254 10.567 4.751 10.493 4.648 10.45 4.588 10.279 4.202 10.142 3.886L10.128 3.798C10.34 4.005 10.66 4.255 10.984 4.255 11 4.255 11.015 4.253 11.035 4.254 11.177 4.254 11.408 4.001 11.713 3.526 11.724 3.546 11.735 3.573 11.746 3.596 11.816 3.84 11.897 4.145 11.969 4.451 11.97 4.455 11.976 4.454 11.977 4.457 12.011 4.682 12.028 4.897 12.018 5.048 12.013 5.12 12.019 5.218 12.027 5.326 12.073 5.327 12.118 5.328 12.166 5.335A0.63 0.63 0 0 1 12.034 4.961C12.037 4.86 12.079 4.804 12.115 4.775 12.252 4.661 12.398 4.784 12.54 4.903M9.593 2.645C9.46 2.39 9.445 2.252 9.471 2.221 9.519 2.232 9.556 2.224 9.596 2.221 9.636 2.265 9.675 2.32 9.687 2.392 9.705 2.505 9.75 2.703 9.767 2.778A0.27 0.27 0 0 1 9.593 2.645M14.814 15.289C14.651 15.407 14.163 15.777 13.911 15.999S13.052 16.472 13.052 16.472 13.052 15.421 12.949 14.844C12.845 14.266 13.067 13.275 13.378 13.172 13.378 13.172 13.926 13.779 14.088 14.06 14.251 14.341 14.606 14.77 14.606 14.904 14.607 15.037 14.976 15.17 14.814 15.289" fill="#111111" data-fill-palette-color="accent"></path><path d="M12.446 5.502C12.354 5.547 11.98 5.416 11.882 5.504 11.692 5.564 11.805 5.651 11.884 5.72 11.858 5.764 11.773 5.84 11.864 6.006 11.707 6.105 11.884 6.263 11.884 6.263S11.844 6.312 11.834 6.352C11.785 6.5 12.288 6.766 12.416 6.835S13.018 6.885 13.077 6.885 13.412 7.151 13.629 7.348 14.043 7.574 14.231 7.476C14.576 7.2 14.231 6.667 14.172 6.548 14.113 6.43 13.511 6.174 13.334 6.134 13.156 6.094 12.999 5.69 12.999 5.69 12.969 5.542 12.792 5.286 12.604 5.147 12.417 5.009 12.269 4.841 12.21 4.891S12.19 5.167 12.348 5.315 12.496 5.507 12.446 5.502" fill="#111111" data-fill-palette-color="accent"></path></g></svg></g></svg></g></svg></g><g transform="matrix(1,0,0,1,49.476448298962396,74.26192199829201)"><svg viewBox="0 0 160.08609973172128 14.520648756859202" height="14.520648756859202" width="160.08609973172128"><g transform="matrix(1,0,0,1,0,0)"><svg width="160.08609973172128" viewBox="1.86 -40.53 674.98 61.230000000000004" height="14.520648756859202" data-palette-color="#000000"><path d="M4.05 0.1L4.05 0.1 1.86 0 1.86-11.38Q2.1-15.04 2.25-17.87 2.39-20.7 2.78-22.75 3.17-24.8 4.05-26.2 4.93-27.59 6.69-28.42L6.69-28.42Q9.86-29.98 18.36-29.98L18.36-29.98Q22.02-29.98 24.56-29.27 27.1-28.56 28.32-27.93L28.32-27.93Q31.1-26.56 31.1-24.12 31.1-21.68 29.71-19.7 28.32-17.72 26.1-16.28 23.88-14.84 21.09-13.92 18.31-12.99 15.53-12.4L15.53-12.4Q10.55-11.43 5.96-11.43L5.96-11.43 5.76-0.49Q5.76 0.1 4.05 0.1ZM5.91-16.94L5.91-16.94Q5.91-14.5 8.01-14.5L8.01-14.5Q8.3-14.5 9.03-14.53 9.77-14.55 11.6-14.67 13.43-14.79 15.48-15.16 17.53-15.53 19.6-16.11 21.68-16.7 23.34-17.58L23.34-17.58Q27.1-19.63 27.1-22.8L27.1-22.8Q26.37-25.98 21.29-26.86L21.29-26.86Q19.78-27.15 18.58-27.15 17.38-27.15 15.75-27.03 14.11-26.9 11.96-26.27 9.81-25.63 8.35-24.56 6.88-23.49 6.74-22.07L6.74-22.07Q6.69-21.48 6.49-20.7L6.49-20.7Q5.91-18.21 5.91-16.94ZM57.18-17.82L57.18-17.82Q55.12-19.29 51.9-19.29L51.9-19.29Q48.87-19.29 46.29-18.16L46.29-18.16Q41.4-16.11 39.6-12.89L39.6-12.89Q38.82-11.43 38.82-9.77L38.82-9.77Q38.82-9.47 38.82-8.13 38.82-6.79 39.3-4.52 39.79-2.25 39.79 0.1L39.79 0.1Q38.77 0.15 38.13 0.34 37.5 0.54 37.06 0.54 36.62 0.54 36.3 0.15 35.98-0.24 35.59-1.37L35.59-1.37Q35.54-1.66 35.4-3.03 35.25-4.39 35.03-6.35 34.81-8.3 34.54-10.62 34.27-12.94 34.03-15.19L34.03-15.19Q33.49-20.07 33.2-22.36L33.2-22.36Q33.2-23.54 34.91-23.54L34.91-23.54Q35.94-23.54 36.52-22.68 37.11-21.83 37.45-20.73 37.79-19.63 37.91-18.55 38.03-17.48 38.13-17.04L38.13-17.04Q44.58-22.8 54.15-22.8L54.15-22.8Q55.22-22.8 56.39-22.75L56.39-22.75Q56.69-22.8 57.13-22.8 57.57-22.8 58.01-22.22L58.01-22.22Q58.54-21.53 58.54-20.56L58.54-20.56Q58.54-18.12 57.18-17.82ZM70.75-3.42L70.75-3.42Q75.04-3.42 83.69-7.32L83.69-7.32Q84.22-7.32 84.57-6.96 84.91-6.59 84.91-6.1L84.91-6.1Q82.95-2.78 77.44-0.93 71.92 0.93 67.13-0.29L67.13-0.29Q61.71-1.71 60.54-6.4L60.54-6.4Q60.44-7.32 60.44-8.89 60.44-10.45 61.25-13.01 62.06-15.58 64.01-17.87 65.96-20.17 68.6-21.48 71.24-22.8 74.21-22.8L74.21-22.8Q77.05-22.8 80.56-20.85L80.56-20.85Q82.22-19.92 83.2-18.75 84.17-17.58 84.17-16.36L84.17-16.36Q84.17-16.02 84.13-15.67L84.13-15.67Q84.03-12.7 81.25-11.91L81.25-11.91Q80.02-11.57 78.41-11.57L78.41-11.57 71.38-11.87Q67.87-11.87 66.01-10.35L66.01-10.35Q64.94-9.52 64.5-7.86L64.5-7.86Q65.72-3.42 70.75-3.42ZM79.46-18.51Q78.36-19.29 77.19-19.63 76.02-19.97 75.24-19.97 74.46-19.97 72.7-19.46 70.94-18.95 69.58-18.31L69.58-18.31Q66.21-16.75 66.21-15.04L66.21-15.04Q70.11-14.7 72.07-14.7L72.07-14.7Q77.49-14.7 79.39-15.63L79.39-15.63Q80.56-16.11 80.56-16.85L80.56-16.85Q80.56-17.72 79.46-18.51ZM91.89-0.78L91.89-0.78Q89.89 0.05 89.23 0.05 88.57 0.05 88.32-0.1 88.08-0.24 87.79-0.78L87.79-0.78Q87.79-2.39 87.91-4.83 88.03-7.28 88.13-10.06 88.22-12.84 88.22-15.67 88.22-18.51 87.93-20.85L87.93-20.85Q87.93-22.41 90.03-22.41L90.03-22.41Q90.52-22.41 90.79-20.65 91.06-18.9 91.18-17.92 91.3-16.94 91.4-16.5L91.4-16.5Q92.67-18.8 96.43-20.12L96.43-20.12Q98.43-20.75 100.19-20.75 101.95-20.75 103.29-20.34 104.63-19.92 105.58-18.82 106.54-17.72 106.54-15.92L106.54-15.92Q107.81-18.31 112.25-20.21L112.25-20.21Q116.3-22.02 119.52-22.02L119.52-22.02Q124.16-22.02 124.06-18.51L124.06-18.51 125.09-0.34Q125.09-0.1 123.67 0L123.67 0Q120.94 0.2 120.94-0.49L120.94-0.49Q120.89-1.46 120.89-2.44L120.89-2.44 121.14-10.3Q121.14-15.82 120.06-19.04L120.06-19.04Q116.84-18.8 115.1-17.99 113.37-17.19 112.05-15.99 110.73-14.79 109.71-12.79L109.71-12.79Q107.41-8.3 107.41-0.88L107.41-0.88Q107.12 0.15 105.51 0.15L105.51 0.15Q104.44 0.15 103.75-0.22 103.07-0.59 103.22-0.88L103.22-0.88Q104.14-6.05 104.14-8.94L104.14-8.94Q104.14-11.23 103.68-13.31 103.22-15.38 102.53-18.07L102.53-18.07Q95.5-18.07 93.06-12.45L93.06-12.45Q91.98-9.96 91.86-7.79 91.74-5.62 91.74-4.08 91.74-2.54 91.89-0.78ZM128.07-22.95L131.14-22.95Q131.78-13.82 132.22-1.81L132.22-1.81Q131.92-0.29 129.87-0.29L129.87-0.29Q129.34-0.29 128.77-0.51 128.21-0.73 128.07-1.12L128.07-1.12 128.07-22.95ZM126.6-29.59L126.6-29.59Q126.6-31.3 128.6-31.3L128.6-31.3Q129.92-31.3 130.75-30.71L130.75-30.71Q130.9-30.18 130.9-29.66 130.9-29.15 130.51-28.66L130.51-28.66Q130.12-28.17 129.34-28.17 128.55-28.17 127.77-28.54 126.99-28.91 126.6-29.59ZM134.07-6.49L134.07-6.49Q134.07-7.28 133.95-8.67 133.83-10.06 133.73-11.72 133.63-13.38 133.63-15.09 133.63-16.8 133.92-18.21L133.92-18.21Q134.56-21.39 136.56-21.39L136.56-21.39Q137.93-21 138.39-20.41 138.85-19.82 138.85-18.97 138.85-18.12 138.42-16.85L138.42-16.85Q136.8-12.6 136.8-9.18L136.8-9.18Q136.8-8.06 136.95-6.79L136.95-6.79Q137.73-3.52 142.32-3.52L142.32-3.52Q144.71-3.52 146.86-4.35L146.86-4.35Q150.96-5.86 152.43-7.91L152.43-7.91Q152.87-10.16 152.87-11.84 152.87-13.53 152.75-14.84 152.62-16.16 152.45-17.75 152.28-19.34 152.23-21.24L152.23-21.24Q152.87-21.53 153.48-21.53 154.09-21.53 154.75-20.9 155.41-20.26 155.87-18.51 156.34-16.75 156.48-14.38 156.63-12.01 156.65-9.47 156.68-6.93 156.68-4.57 156.68-2.2 156.87-0.49L156.87-0.49Q156.29 0.05 155.75 0.05L155.75 0.05Q153.8 0.05 152.87-3.86L152.87-3.86Q152.23-3.32 150.72-2.54L150.72-2.54Q147.5-0.78 143.1-0.2L143.1-0.2Q142.27-0.1 141.25-0.1 140.22-0.1 138.68-0.49 137.15-0.88 135.78-2.29 134.41-3.71 134.07-6.49ZM163.75-0.78L163.75-0.78Q161.75 0.05 161.09 0.05 160.43 0.05 160.19-0.1 159.95-0.24 159.65-0.78L159.65-0.78Q159.65-2.39 159.78-4.83 159.9-7.28 159.99-10.06 160.09-12.84 160.09-15.67 160.09-18.51 159.8-20.85L159.8-20.85Q159.8-22.41 161.9-22.41L161.9-22.41Q162.39-22.41 162.66-20.65 162.92-18.9 163.05-17.92 163.17-16.94 163.27-16.5L163.27-16.5Q164.54-18.8 168.3-20.12L168.3-20.12Q170.3-20.75 172.06-20.75 173.81-20.75 175.16-20.34 176.5-19.92 177.45-18.82 178.4-17.72 178.4-15.92L178.4-15.92Q179.67-18.31 184.12-20.21L184.12-20.21Q188.17-22.02 191.39-22.02L191.39-22.02Q196.03-22.02 195.93-18.51L195.93-18.51 196.96-0.34Q196.96-0.1 195.54 0L195.54 0Q192.81 0.2 192.81-0.49L192.81-0.49Q192.76-1.46 192.76-2.44L192.76-2.44 193-10.3Q193-15.82 191.93-19.04L191.93-19.04Q188.71-18.8 186.97-17.99 185.24-17.19 183.92-15.99 182.6-14.79 181.58-12.79L181.58-12.79Q179.28-8.3 179.28-0.88L179.28-0.88Q178.99 0.15 177.38 0.15L177.38 0.15Q176.3 0.15 175.62-0.22 174.94-0.59 175.08-0.88L175.08-0.88Q176.01-6.05 176.01-8.94L176.01-8.94Q176.01-11.23 175.55-13.31 175.08-15.38 174.4-18.07L174.4-18.07Q167.37-18.07 164.93-12.45L164.93-12.45Q163.85-9.96 163.73-7.79 163.61-5.62 163.61-4.08 163.61-2.54 163.75-0.78ZM237.19-13.48L237.19-13.48Q236.11-9.91 235.4-6.88 234.7-3.86 234.01-1.86L234.01-1.86Q232.94 1.03 231.57 1.03L231.57 1.03Q230.84 1.03 229.91 0.34L229.91 0.34Q227.67-2.05 223.56-10.25L223.56-10.25Q219.56-18.26 219.56-20.26L219.56-20.26Q219.56-21.14 220.1-21.36 220.63-21.58 221.32-21.39L221.32-21.39Q222.98-20.9 223.66-19.87L223.66-19.87Q224-19.38 224.49-18.16L224.49-18.16 225.71-15.14Q227.76-10.01 229.77-5.76L229.77-5.76Q230.84-7.42 231.82-10.06L231.82-10.06 233.33-14.26Q235.28-19.78 236.85-19.87L236.85-19.87Q238.07-20.65 244.17-11.23L244.17-11.23Q246.76-7.23 247.39-6.45L247.39-6.45Q247.83-6.45 248.44-9.38 249.05-12.3 249.52-14.33 249.98-16.36 250.66-18.12L250.66-18.12Q252.27-22.22 254.37-22.22L254.37-22.22Q255.06-22.22 255.33-21.75 255.6-21.29 255.6-21 255.6-20.7 255.6-20.56L255.6-20.56Q255.01-18.9 254.37-16.77 253.74-14.65 253.03-12.43 252.32-10.21 251.62-8.03 250.91-5.86 250.22-4.1L250.22-4.1Q248.61-0.29 247.54 0L247.54 0Q246.71 0.39 244.85-1.9L244.85-1.9Q244.02-2.98 243.1-4.44 242.17-5.91 241.14-7.47L241.14-7.47Q238.65-11.38 237.19-13.48ZM269.02-3.42L269.02-3.42Q273.32-3.42 281.96-7.32L281.96-7.32Q282.5-7.32 282.84-6.96 283.18-6.59 283.18-6.1L283.18-6.1Q281.23-2.78 275.71-0.93 270.19 0.93 265.41-0.29L265.41-0.29Q259.99-1.71 258.82-6.4L258.82-6.4Q258.72-7.32 258.72-8.89 258.72-10.45 259.52-13.01 260.33-15.58 262.28-17.87 264.24-20.17 266.87-21.48 269.51-22.8 272.49-22.8L272.49-22.8Q275.32-22.8 278.83-20.85L278.83-20.85Q280.5-19.92 281.47-18.75 282.45-17.58 282.45-16.36L282.45-16.36Q282.45-16.02 282.4-15.67L282.4-15.67Q282.3-12.7 279.52-11.91L279.52-11.91Q278.3-11.57 276.69-11.57L276.69-11.57 269.66-11.87Q266.14-11.87 264.28-10.35L264.28-10.35Q263.21-9.52 262.77-7.86L262.77-7.86Q263.99-3.42 269.02-3.42ZM277.74-18.51Q276.64-19.29 275.47-19.63 274.29-19.97 273.51-19.97 272.73-19.97 270.97-19.46 269.22-18.95 267.85-18.31L267.85-18.31Q264.48-16.75 264.48-15.04L264.48-15.04Q268.39-14.7 270.34-14.7L270.34-14.7Q275.76-14.7 277.66-15.63L277.66-15.63Q278.83-16.11 278.83-16.85L278.83-16.85Q278.83-17.72 277.74-18.51ZM305.3-8.11L305.3-8.11Q301.64-2.34 295.53-0.98L295.53-0.98Q294.12-0.68 292.97-0.68 291.82-0.68 291.06-0.71 290.31-0.73 289.38-0.93 288.45-1.12 287.67-1.56L287.67-1.56Q285.86-2.59 285.86-4.44L285.86-4.44Q285.67-5.32 285.67-6.42 285.67-7.52 286.16-9.33 286.64-11.13 287.94-13.23 289.23-15.33 291.09-17.09L291.09-17.09Q294.95-20.8 299.44-21.88L299.44-21.88Q300.76-22.17 301.85-22.17 302.95-22.17 303.83-22.02L303.83-22.02Q306.66-22.02 307.64-18.16L307.64-18.16Q308.28-15.72 308.4-11.35 308.52-6.98 308.64-4.61 308.76-2.25 309.25-0.29L309.25-0.29 306.37-0.29Q306.18-1.61 306.08-2.64 305.98-3.66 305.88-4.54L305.88-4.54Q305.64-6.59 305.3-8.11ZM305.1-15.67L305.1-15.67Q305.1-18.51 302.32-18.51L302.32-18.51Q301.98-18.55 301.64-18.55L301.64-18.55Q298.07-18.55 294.12-15.14L294.12-15.14Q292.26-13.57 290.94-11.62L290.94-11.62Q288.99-8.84 288.99-6.64L288.99-6.64Q288.99-3.76 292.31-3.22L292.31-3.22Q296.7-3.32 300.71-7.23L300.71-7.23Q302.42-8.94 303.54-10.94L303.54-10.94Q305.1-13.62 305.1-15.67ZM335.52-17.82L335.52-17.82Q333.47-19.29 330.25-19.29L330.25-19.29Q327.22-19.29 324.63-18.16L324.63-18.16Q319.75-16.11 317.94-12.89L317.94-12.89Q317.16-11.43 317.16-9.77L317.16-9.77Q317.16-9.47 317.16-8.13 317.16-6.79 317.65-4.52 318.14-2.25 318.14 0.1L318.14 0.1Q317.11 0.15 316.48 0.34 315.84 0.54 315.4 0.54 314.96 0.54 314.65 0.15 314.33-0.24 313.94-1.37L313.94-1.37Q313.89-1.66 313.74-3.03 313.6-4.39 313.38-6.35 313.16-8.3 312.89-10.62 312.62-12.94 312.37-15.19L312.37-15.19Q311.84-20.07 311.54-22.36L311.54-22.36Q311.54-23.54 313.25-23.54L313.25-23.54Q314.28-23.54 314.87-22.68 315.45-21.83 315.79-20.73 316.13-19.63 316.26-18.55 316.38-17.48 316.48-17.04L316.48-17.04Q322.92-22.8 332.49-22.8L332.49-22.8Q333.57-22.8 334.74-22.75L334.74-22.75Q335.03-22.8 335.47-22.8 335.91-22.8 336.35-22.22L336.35-22.22Q336.89-21.53 336.89-20.56L336.89-20.56Q336.89-18.12 335.52-17.82ZM387.17-16.31L387.17-16.31Q387.42-16.31 387.42-14.99 387.42-13.67 387.52-13.18L387.52-13.18 370.77-11.13 371.65-0.29 367.69-0.49Q367.69-4.88 366.72-10.55L366.72-10.55 360.37-8.11Q359.73-8.11 359.29-8.84L359.29-8.84Q358.51-10.11 358.51-11.13L358.51-11.13 365.93-13.77Q364.96-22.17 364.96-27.42 364.96-32.67 365.84-35.6 366.72-38.53 368.4-39.53 370.08-40.53 371.99-40.53 373.89-40.53 375.87-39.7 377.85-38.87 379.66-37.6 381.46-36.33 382.73-34.74 384-33.15 384-31.64L384-31.64Q384-30.47 383.76-29.98L383.76-29.98Q381.8-32.71 379.02-34.86L379.02-34.86Q375.7-37.4 372.77-37.4L372.77-37.4Q369.99-37.4 369.06-33.45L369.06-33.45Q368.62-31.4 368.62-27.66 368.62-23.93 368.82-20.83 369.01-17.72 369.99-14.6L369.99-14.6Q373.01-14.6 376.77-15.14L376.77-15.14Q384-16.26 387.17-16.31ZM390.05-9.28L390.05-9.28Q390.05-15.04 395.03-18.55L395.03-18.55Q398.99-21.34 404.55-21.92L404.55-21.92Q404.85-21.92 405.92-21.92 407-21.92 408.8-21.29L408.8-21.29Q412.81-19.92 414.27-16.46L414.27-16.46Q414.86-15.09 414.86-14.14 414.86-13.18 414.81-12.79L414.81-12.79Q414.81-6.69 410.17-3.17L410.17-3.17Q405.87 0.05 399.43 0.05L399.43 0.05Q394.79 0.05 392.42-2.1 390.05-4.25 390.05-9.28ZM393.42-8.11L393.42-8.11Q393.42-5.08 395.03-4L395.03-4Q396.25-3.22 399.13-3.22 402.02-3.22 404.21-3.66 406.41-4.1 408.12-5.18L408.12-5.18Q411.78-7.52 411.78-12.45L411.78-12.45Q411.78-15.38 410.22-17.24L410.22-17.24Q408.51-19.24 405.73-19.24L405.73-19.24Q403.82-18.9 401.89-18.51 399.97-18.12 398.26-16.99L398.26-16.99Q394.55-14.6 393.42-8.11ZM440.93-17.82L440.93-17.82Q438.88-19.29 435.66-19.29L435.66-19.29Q432.63-19.29 430.04-18.16L430.04-18.16Q425.16-16.11 423.35-12.89L423.35-12.89Q422.57-11.43 422.57-9.77L422.57-9.77Q422.57-9.47 422.57-8.13 422.57-6.79 423.06-4.52 423.55-2.25 423.55 0.1L423.55 0.1Q422.52 0.15 421.89 0.34 421.25 0.54 420.81 0.54 420.37 0.54 420.06 0.15 419.74-0.24 419.35-1.37L419.35-1.37Q419.3-1.66 419.15-3.03 419.01-4.39 418.79-6.35 418.57-8.3 418.3-10.62 418.03-12.94 417.78-15.19L417.78-15.19Q417.25-20.07 416.95-22.36L416.95-22.36Q416.95-23.54 418.66-23.54L418.66-23.54Q419.69-23.54 420.28-22.68 420.86-21.83 421.2-20.73 421.54-19.63 421.67-18.55 421.79-17.48 421.89-17.04L421.89-17.04Q428.33-22.8 437.9-22.8L437.9-22.8Q438.98-22.8 440.15-22.75L440.15-22.75Q440.44-22.8 440.88-22.8 441.32-22.8 441.76-22.22L441.76-22.22Q442.3-21.53 442.3-20.56L442.3-20.56Q442.3-18.12 440.93-17.82ZM474.52-3.42L474.52-3.42Q478.81-3.42 487.46-7.32L487.46-7.32Q487.99-7.32 488.34-6.96 488.68-6.59 488.68-6.1L488.68-6.1Q486.73-2.78 481.21-0.93 475.69 0.93 470.9-0.29L470.9-0.29Q465.48-1.71 464.31-6.4L464.31-6.4Q464.22-7.32 464.22-8.89 464.22-10.45 465.02-13.01 465.83-15.58 467.78-17.87 469.73-20.17 472.37-21.48 475.01-22.8 477.98-22.8L477.98-22.8Q480.82-22.8 484.33-20.85L484.33-20.85Q485.99-19.92 486.97-18.75 487.95-17.58 487.95-16.36L487.95-16.36Q487.95-16.02 487.9-15.67L487.9-15.67Q487.8-12.7 485.02-11.91L485.02-11.91Q483.8-11.57 482.18-11.57L482.18-11.57 475.15-11.87Q471.64-11.87 469.78-10.35L469.78-10.35Q468.71-9.52 468.27-7.86L468.27-7.86Q469.49-3.42 474.52-3.42ZM483.23-18.51Q482.14-19.29 480.96-19.63 479.79-19.97 479.01-19.97 478.23-19.97 476.47-19.46 474.71-18.95 473.35-18.31L473.35-18.31Q469.98-16.75 469.98-15.04L469.98-15.04Q473.88-14.7 475.84-14.7L475.84-14.7Q481.26-14.7 483.16-15.63L483.16-15.63Q484.33-16.11 484.33-16.85L484.33-16.85Q484.33-17.72 483.23-18.51ZM492.04-18.9L492.04-18.9Q491.95-19.14 491.95-19.46 491.95-19.78 492.19-20.31 492.44-20.85 492.9-21.24 493.36-21.63 493.92-21.61 494.49-21.58 494.83-20.9L494.83-20.9 503.03-5.66Q503.42-6.25 504.28-7.84 505.13-9.42 506.23-11.43 507.33-13.43 508.52-15.6 509.72-17.77 510.75-19.58L510.75-19.58Q513.09-23.73 513.53-23.73L513.53-23.73Q514.55-23.73 515.02-22.97 515.48-22.22 515.48-21.83 515.48-21.44 515.48-21.29L515.48-21.29Q512.75-15.33 510.43-10.3 508.11-5.27 507.35-3.78 506.6-2.29 506.01-1.42L506.01-1.42Q504.98 0.1 504.01 0.1 503.03 0.1 501.76-1.44 500.49-2.98 498.88-5.57L498.88-5.57Q496.05-10.25 492.04-18.9ZM527.49-3.42L527.49-3.42Q531.79-3.42 540.43-7.32L540.43-7.32Q540.97-7.32 541.31-6.96 541.65-6.59 541.65-6.1L541.65-6.1Q539.7-2.78 534.18-0.93 528.66 0.93 523.88-0.29L523.88-0.29Q518.46-1.71 517.29-6.4L517.29-6.4Q517.19-7.32 517.19-8.89 517.19-10.45 517.99-13.01 518.8-15.58 520.75-17.87 522.71-20.17 525.34-21.48 527.98-22.8 530.96-22.8L530.96-22.8Q533.79-22.8 537.31-20.85L537.31-20.85Q538.97-19.92 539.94-18.75 540.92-17.58 540.92-16.36L540.92-16.36Q540.92-16.02 540.87-15.67L540.87-15.67Q540.77-12.7 537.99-11.91L537.99-11.91Q536.77-11.57 535.16-11.57L535.16-11.57 528.13-11.87Q524.61-11.87 522.76-10.35L522.76-10.35Q521.68-9.52 521.24-7.86L521.24-7.86Q522.46-3.42 527.49-3.42ZM536.21-18.51Q535.11-19.29 533.94-19.63 532.76-19.97 531.98-19.97 531.2-19.97 529.44-19.46 527.69-18.95 526.32-18.31L526.32-18.31Q522.95-16.75 522.95-15.04L522.95-15.04Q526.86-14.7 528.81-14.7L528.81-14.7Q534.23-14.7 536.13-15.63L536.13-15.63Q537.31-16.11 537.31-16.85L537.31-16.85Q537.31-17.72 536.21-18.51ZM568.55-17.82L568.55-17.82Q566.5-19.29 563.28-19.29L563.28-19.29Q560.25-19.29 557.66-18.16L557.66-18.16Q552.78-16.11 550.98-12.89L550.98-12.89Q550.19-11.43 550.19-9.77L550.19-9.77Q550.19-9.47 550.19-8.13 550.19-6.79 550.68-4.52 551.17-2.25 551.17 0.1L551.17 0.1Q550.15 0.15 549.51 0.34 548.88 0.54 548.44 0.54 548 0.54 547.68 0.15 547.36-0.24 546.97-1.37L546.97-1.37Q546.92-1.66 546.78-3.03 546.63-4.39 546.41-6.35 546.19-8.3 545.92-10.62 545.65-12.94 545.41-15.19L545.41-15.19Q544.87-20.07 544.58-22.36L544.58-22.36Q544.58-23.54 546.29-23.54L546.29-23.54Q547.31-23.54 547.9-22.68 548.49-21.83 548.83-20.73 549.17-19.63 549.29-18.55 549.41-17.48 549.51-17.04L549.51-17.04Q555.96-22.8 565.53-22.8L565.53-22.8Q566.6-22.8 567.77-22.75L567.77-22.75Q568.07-22.8 568.5-22.8 568.94-22.8 569.38-22.22L569.38-22.22Q569.92-21.53 569.92-20.56L569.92-20.56Q569.92-18.12 568.55-17.82ZM597.31-21.19L582.47 18.41Q581.44 20.7 580.03 20.7L580.03 20.7Q579.34 20.7 579.02 20.09 578.71 19.48 579 18.65L579 18.65Q580.07 14.11 582.1 8.3 584.13 2.49 584.81 0.49L584.81 0.49Q583.1-1.22 579.44-6.35L579.44-6.35Q571.92-16.89 571.92-17.92L571.92-17.92Q571.92-17.97 571.97-18.02L571.97-18.02 573.82-19.87Q577.68-16.31 583.88-7.76L583.88-7.76Q585.45-5.62 586.37-4.15L586.37-4.15Q587.4-6.2 587.98-7.69 588.57-9.18 588.94-10.08 589.3-10.99 589.94-12.5L589.94-12.5Q591.6-16.55 594.53-22.8L594.53-22.8Q594.97-23 595.46-23L595.46-23Q596.68-23 597.21-22.36L597.21-22.36Q597.41-22.12 597.41-21.8 597.41-21.48 597.31-21.19L597.31-21.19ZM600.82-9.28L600.82-9.28Q600.82-15.04 605.8-18.55L605.8-18.55Q609.76-21.34 615.33-21.92L615.33-21.92Q615.62-21.92 616.69-21.92 617.77-21.92 619.57-21.29L619.57-21.29Q623.58-19.92 625.04-16.46L625.04-16.46Q625.63-15.09 625.63-14.14 625.63-13.18 625.58-12.79L625.58-12.79Q625.58-6.69 620.94-3.17L620.94-3.17Q616.64 0.05 610.2 0.05L610.2 0.05Q605.56 0.05 603.19-2.1 600.82-4.25 600.82-9.28ZM604.19-8.11L604.19-8.11Q604.19-5.08 605.8-4L605.8-4Q607.03-3.22 609.91-3.22 612.79-3.22 614.98-3.66 617.18-4.1 618.89-5.18L618.89-5.18Q622.55-7.52 622.55-12.45L622.55-12.45Q622.55-15.38 620.99-17.24L620.99-17.24Q619.28-19.24 616.5-19.24L616.5-19.24Q614.59-18.9 612.66-18.51 610.74-18.12 609.03-16.99L609.03-16.99Q605.32-14.6 604.19-8.11ZM646.72-7.71L646.77-10.69Q646.77-16.5 646.13-19.24L646.13-19.24Q646.52-19.97 644.96-19.97L644.96-19.97Q643.3-19.97 640.67-19.14 638.03-18.31 636.37-17.48L636.37-17.48Q632.41-15.58 631.97-13.77L631.97-13.77 631.97-0.49 628.7-0.49Q628.07-2.15 628.07-9.81L628.07-9.81Q628.07-16.65 628.34-19.87 628.6-23.1 628.75-23.54L628.75-23.54Q630.02-24.37 630.8-24.37L630.8-24.37Q632.02-24.37 632.02-21.48L632.02-21.48Q632.02-20.36 631.9-19.31 631.78-18.26 631.78-17.87L631.78-17.87Q639.69-23.68 644.03-23.68L644.03-23.68Q648.97-23.68 649.65-15.72L649.65-15.72Q649.94-12.94 649.94-8.01L649.94-8.01 649.89-4.15Q649.89-2 649.99 0L649.99 0Q649.5 0.29 649.21 0.29L649.21 0.29Q649.06 0.24 648.58 0.15 648.09 0.05 647.31 0L647.31 0Q646.82-1.95 646.77-3.98 646.72-6.01 646.72-7.71L646.72-7.71ZM662.68-3.42L662.68-3.42Q666.98-3.42 675.62-7.32L675.62-7.32Q676.16-7.32 676.5-6.96 676.84-6.59 676.84-6.1L676.84-6.1Q674.89-2.78 669.37-0.93 663.86 0.93 659.07-0.29L659.07-0.29Q653.65-1.71 652.48-6.4L652.48-6.4Q652.38-7.32 652.38-8.89 652.38-10.45 653.19-13.01 653.99-15.58 655.95-17.87 657.9-20.17 660.54-21.48 663.17-22.8 666.15-22.8L666.15-22.8Q668.98-22.8 672.5-20.85L672.5-20.85Q674.16-19.92 675.14-18.75 676.11-17.58 676.11-16.36L676.11-16.36Q676.11-16.02 676.06-15.67L676.06-15.67Q675.97-12.7 673.18-11.91L673.18-11.91Q671.96-11.57 670.35-11.57L670.35-11.57 663.32-11.87Q659.8-11.87 657.95-10.35L657.95-10.35Q656.87-9.52 656.43-7.86L656.43-7.86Q657.65-3.42 662.68-3.42ZM671.4-18.51Q670.3-19.29 669.13-19.63 667.96-19.97 667.18-19.97 666.4-19.97 664.64-19.46 662.88-18.95 661.51-18.31L661.51-18.31Q658.14-16.75 658.14-15.04L658.14-15.04Q662.05-14.7 664-14.7L664-14.7Q669.42-14.7 671.33-15.63L671.33-15.63Q672.5-16.11 672.5-16.85L672.5-16.85Q672.5-17.72 671.4-18.51Z" opacity="1" transform="matrix(1,0,0,1,0,0)" fill="#000000" class="slogan-text-1" data-fill-palette-color="secondary" id="text-1"></path></svg></g></svg></g></svg></g></svg></g><g></g></svg></g><defs></defs></svg><rect width="259.03899632964607" height="88.78257075515121" fill="none" stroke="none" visibility="hidden"></rect></g></svg></g></svg>